<mxfile host="app.diagrams.net" modified="2023-11-22T13:04:37.860Z" agent="Mozilla/5.0 (Macintosh; Intel Mac OS X 10_15_7) AppleWebKit/605.1.15 (KHTML, like Gecko) Version/17.0 Safari/605.1.15" version="22.1.3" etag="VqBK5OP_tixbDz8Udmul" type="github">
  <diagram name="Page-1" id="j7UF3-ZmHRWAZniR5SFM">
    <mxGraphModel>
      <root>
        <mxCell id="0" />
        <mxCell id="1" parent="0" />
      </root>
    </mxGraphModel>
  </diagram>
</mxfile>
